<?xml version="1.0" standalone="no"?>
<!DOCTYPE svg PUBLIC "-//W3C//DTD SVG 20010904//EN"
 "http://www.w3.org/TR/2001/REC-SVG-20010904/DTD/svg10.dtd">
<svg version="1.0" xmlns="http://www.w3.org/2000/svg"
 width="251.000000pt" height="307.000000pt" viewBox="0 0 251.000000 307.000000"
 preserveAspectRatio="xMidYMid meet">
<metadata>
Created by potrace 1.13, written by Peter Selinger 2001-2015
</metadata>
<g transform="translate(0.000000,307.000000) scale(0.100000,-0.100000)"
fill="#000000" stroke="none">
<path d="M1 2228 c1 -760 2 -835 15 -759 17 98 70 264 113 348 16 33 62 109
103 169 40 60 156 251 258 423 102 172 213 347 247 390 100 128 230 220 359
256 43 11 -26 13 -523 14 l-573 1 1 -842z"/>
<path d="M1419 3054 c73 -19 178 -76 240 -129 102 -87 161 -169 358 -502 109
-184 229 -382 267 -441 115 -180 181 -343 210 -516 12 -72 14 17 15 762 l1
842 -572 -1 c-519 0 -568 -2 -519 -15z"/>
<path d="M1204 2383 c-16 -3 -26 -19 -39 -64 -10 -32 -21 -59 -24 -59 -3 0
-19 22 -34 50 -33 58 -36 61 -66 53 -19 -5 -22 -11 -17 -42 3 -20 8 -62 12
-93 5 -49 9 -58 26 -58 18 0 19 4 13 60 -4 33 -4 60 -1 60 3 0 17 -20 32 -45
35 -61 57 -59 73 5 16 62 31 73 31 23 0 -58 10 -83 32 -83 16 0 19 5 15 23 -3
12 -9 57 -13 100 -4 42 -10 76 -13 76 -3 -1 -15 -4 -27 -6z"/>
<path d="M1330 2364 c0 -5 -6 -48 -13 -96 l-14 -86 23 -5 c19 -3 24 1 26 22 3
24 7 26 52 26 35 1 52 6 62 20 20 26 17 79 -4 98 -19 18 -132 35 -132 21z
m103 -55 c16 -26 1 -49 -32 -49 -36 0 -41 6 -34 43 5 23 10 28 31 25 14 -2 30
-10 35 -19z"/>
<path d="M837 2297 c-13 -9 -18 -36 -24 -121 -6 -108 -6 -108 15 -97 11 6 22
20 24 32 4 30 73 57 100 40 19 -12 58 -7 58 7 0 8 -112 118 -141 140 -12 9
-19 9 -32 -1z m66 -108 c-5 -4 -17 -9 -28 -11 -17 -2 -21 3 -23 37 l-3 40 30
-29 c17 -17 28 -33 24 -37z"/>
<path d="M1613 2221 l-41 -89 58 -26 c32 -14 67 -26 78 -26 28 0 45 25 40 60
-3 22 0 31 13 35 21 7 32 35 23 59 -5 13 -110 76 -127 76 -2 0 -22 -40 -44
-89z m107 21 c25 -20 20 -42 -8 -42 -30 0 -45 16 -37 39 8 26 16 26 45 3z
m-10 -97 c0 -22 -19 -28 -51 -15 -33 14 -33 14 -19 41 10 18 13 18 40 4 17 -9
30 -22 30 -30z"/>
<path d="M614 2166 c-45 -45 -47 -95 -5 -137 51 -51 131 -36 166 31 13 25 13
29 -2 34 -10 4 -20 1 -25 -8 -29 -52 -78 -59 -110 -15 -27 35 -11 75 34 87 45
11 51 42 8 42 -23 0 -42 -10 -66 -34z"/>
<path d="M1810 2114 c-59 -71 -61 -76 -44 -89 17 -12 22 -11 40 6 26 25 44 9
44 -41 0 -24 6 -39 19 -47 18 -11 20 -9 23 24 2 31 8 38 31 44 65 17 74 72 20
124 -65 64 -65 64 -133 -21z m110 -9 c22 -23 23 -27 8 -42 -19 -18 -66 -11
-75 13 -5 14 22 54 37 54 3 0 17 -11 30 -25z"/>
<path d="M1982 1972 c-67 -61 -72 -69 -59 -86 13 -18 17 -15 83 44 74 66 82
81 62 98 -10 8 -30 -5 -86 -56z"/>
<path d="M421 1997 c-8 -11 5 -29 60 -82 l71 -69 45 47 c38 40 43 50 32 63
-11 13 -16 11 -42 -15 l-30 -30 -55 50 c-58 53 -64 56 -81 36z"/>
<path d="M1241 1965 c-20 -56 -90 -143 -247 -305 -161 -167 -226 -250 -273
-350 -164 -347 24 -749 394 -845 77 -20 211 -19 289 1 108 28 184 72 272 159
126 124 177 249 176 429 -2 214 -73 342 -352 630 -138 143 -230 260 -230 292
0 28 -17 21 -29 -11z"/>
<path d="M2041 1884 c-25 -21 -31 -33 -31 -65 0 -49 20 -90 53 -108 22 -12 29
-11 56 5 35 20 37 27 18 43 -10 8 -19 7 -33 -3 -16 -13 -21 -12 -36 1 -18 16
-24 59 -10 79 34 51 111 28 112 -33 0 -16 6 -23 20 -23 35 0 26 56 -14 96 -43
43 -90 46 -135 8z"/>
<path d="M303 1838 c-8 -19 -1 -35 50 -105 34 -46 64 -83 68 -83 14 0 21 41
10 54 -17 20 24 86 53 86 11 0 27 9 33 20 11 17 10 20 -20 25 -34 6 -168 24
-178 25 -3 0 -10 -10 -16 -22z m111 -34 c14 -5 14 -8 -1 -30 -17 -26 -33 -21
-54 18 -8 15 -6 18 15 18 13 0 31 -3 40 -6z"/>
<path d="M2178 1678 c-49 -16 -88 -33 -88 -36 0 -4 4 -13 9 -21 8 -12 16 -13
45 -4 34 10 35 10 45 -20 17 -46 14 -55 -23 -67 -27 -8 -33 -15 -29 -30 3 -11
8 -20 12 -20 3 0 46 12 94 27 77 23 88 29 85 47 -2 16 -9 20 -28 17 -59 -8
-62 -7 -76 31 l-13 38 40 11 c40 13 43 16 33 43 -8 20 -1 21 -106 -16z"/>
<path d="M237 1675 c-17 -17 -52 -113 -44 -121 11 -11 187 -62 187 -54 0 5 3
15 6 23 3 10 -3 17 -20 21 -25 6 -26 9 -20 60 6 48 4 55 -17 70 -29 20 -73 21
-92 1z m71 -42 c10 -19 -1 -63 -15 -63 -26 1 -53 14 -53 27 0 46 50 72 68 36z"/>
<path d="M167 1441 c-4 -16 4 -19 61 -25 74 -8 92 -18 92 -52 0 -34 -31 -46
-99 -38 -50 5 -59 4 -65 -12 -10 -26 10 -34 84 -34 78 0 106 16 116 65 14 78
-28 115 -131 115 -43 0 -54 -3 -58 -19z"/>
<path d="M2310 1431 c0 -24 -5 -29 -31 -35 -17 -3 -53 -6 -80 -6 -46 0 -49 -2
-49 -25 l0 -25 85 6 85 7 0 -32 c0 -22 4 -31 13 -29 17 6 20 31 12 104 -5 45
-11 64 -21 64 -9 0 -14 -11 -14 -29z"/>
<path d="M2198 1245 c-37 -20 -48 -44 -48 -100 0 -63 31 -95 92 -95 24 0 53 7
65 15 26 18 44 76 36 115 -12 61 -90 96 -145 65z m92 -55 c11 -11 20 -29 20
-40 0 -26 -34 -60 -60 -60 -24 0 -70 42 -70 65 0 23 37 55 65 55 14 0 34 -9
45 -20z"/>
<path d="M319 1210 c-22 -16 -31 -18 -56 -8 -71 27 -107 -16 -92 -111 4 -30
10 -54 11 -56 2 -1 45 5 96 13 86 13 92 16 92 38 0 21 -4 23 -29 18 -40 -8
-50 28 -14 56 17 13 23 27 21 44 l-3 25 -26 -19z m-61 -52 c7 -7 12 -24 12
-39 0 -22 -5 -27 -30 -31 -36 -5 -40 -2 -40 32 0 27 16 50 35 50 6 0 16 -5 23
-12z"/>
<path d="M1 563 l-1 -563 533 1 c482 1 526 2 467 15 -163 35 -314 99 -457 195
-99 66 -255 222 -320 319 -103 154 -177 334 -203 490 -6 41 -13 82 -15 90 -1
8 -3 -238 -4 -547z"/>
<path d="M2500 1091 c0 -16 -7 -62 -15 -101 -50 -239 -168 -455 -344 -631
-177 -177 -385 -290 -631 -343 -59 -13 -15 -14 468 -15 l532 -1 0 560 c0 308
-2 560 -5 560 -3 0 -5 -13 -5 -29z"/>
<path d="M2116 1014 c-10 -27 -7 -30 44 -48 28 -10 50 -22 50 -26 0 -4 -31
-15 -69 -25 -66 -16 -94 -37 -74 -56 17 -16 158 -69 170 -65 27 11 11 34 -39
56 l-53 23 55 18 c30 10 63 18 73 18 10 1 21 11 26 24 9 24 18 19 -126 76 -45
17 -52 18 -57 5z"/>
<path d="M277 979 c-11 -6 -25 -26 -33 -44 -12 -28 -11 -40 1 -82 8 -26 19
-55 24 -63 10 -15 4 -17 158 47 l32 13 -20 47 c-30 71 -55 93 -103 93 -23 0
-49 -5 -59 -11z m88 -35 c8 -4 22 -19 31 -35 14 -28 14 -29 -23 -45 -84 -35
-80 -35 -93 -4 -22 53 30 105 85 84z"/>
</g>
</svg>
